<svg width="12" height="12" viewBox="0 0 12 12" fill="none" xmlns="http://www.w3.org/2000/svg">
<path fill-rule="evenodd" clip-rule="evenodd" d="M0.201364 0.201364C0.46985 -0.0671214 0.905151 -0.0671214 1.17364 0.201364L6 5.02773L10.8264 0.201364C11.0948 -0.0671214 11.5302 -0.0671214 11.7986 0.201364C12.0671 0.46985 12.0671 0.905151 11.7986 1.17364L6.97227 6L11.7986 10.8264C12.0671 11.0948 12.0671 11.5302 11.7986 11.7986C11.5302 12.0671 11.0948 12.0671 10.8264 11.7986L6 6.97227L1.17364 11.7986C0.905151 12.0671 0.46985 12.0671 0.201364 11.7986C-0.0671214 11.5302 -0.0671214 11.0948 0.201364 10.8264L5.02773 6L0.201364 1.17364C-0.0671214 0.905151 -0.0671214 0.46985 0.201364 0.201364Z" fill="#3F4B51"/>
</svg>
