<svg width="15" height="15" viewBox="0 0 15 15" fill="none" xmlns="http://www.w3.org/2000/svg">
<path d="M3.37635 6.19822C3.20813 6.03 3.20813 5.75726 3.37635 5.58908C4.06088 4.90454 5.16209 4.88431 5.8712 5.52854L6.12125 5.40253C5.31289 4.59411 3.99816 4.59418 3.18981 5.40251C2.91854 5.67374 2.9186 6.11357 3.18983 6.3848C3.46107 6.65595 3.90083 6.656 4.17206 6.38477C4.27934 6.27749 4.41381 6.21341 4.55356 6.19252L4.97957 5.97785C4.64436 5.85646 4.25385 5.9299 3.98551 6.19822C3.81733 6.3664 3.54459 6.3664 3.37635 6.19822Z" fill="#35526C"/>
<path d="M6.12131 6.3847C6.39249 6.11346 6.39246 5.67375 6.12125 5.40253L6.12131 6.3847Z" fill="#35526C"/>
<path d="M5.13907 6.38477C5.27463 6.52032 5.4528 6.58822 5.63016 6.58822C5.80744 6.58822 5.9857 6.52038 6.12125 6.38477L5.13907 6.38477Z" fill="#35526C"/>
<path d="M3.37635 5.58908C3.20813 5.75726 3.20813 6.03 3.37635 6.19822C3.54459 6.3664 3.81733 6.3664 3.98551 6.19822C4.25385 5.9299 4.64436 5.85646 4.97957 5.97785L5.8712 5.52854C5.16209 4.88431 4.06088 4.90454 3.37635 5.58908Z" fill="#35526C"/>
<path d="M5.9347 6.19822C6.10292 6.03 6.10292 5.75729 5.9347 5.58908C5.91391 5.56828 5.89274 5.5481 5.8712 5.52854L4.97957 5.97785C5.10595 6.02361 5.22447 6.09707 5.32562 6.19822C5.40974 6.28234 5.51995 6.3244 5.63016 6.3244C5.74037 6.3244 5.85064 6.28234 5.9347 6.19822Z" fill="#35526C"/>
<path fill-rule="evenodd" clip-rule="evenodd" d="M11.8102 6.3847C12.0814 6.11346 12.0814 5.67375 11.8101 5.40253C11.0018 4.59418 9.68705 4.5941 8.87868 5.40254C8.60744 5.67376 8.60747 6.11354 8.87869 6.38477C9.14994 6.65592 9.58973 6.656 9.86096 6.38477C10.1274 6.11833 10.5615 6.1183 10.828 6.38477C10.9635 6.52032 11.1417 6.58822 11.3191 6.58822C11.4963 6.58822 11.6746 6.52038 11.8101 6.38477L11.8102 6.3847ZM9.06524 6.19822C8.89703 6.03 8.89703 5.75726 9.06524 5.58908C9.77057 4.88369 10.9183 4.88375 11.6236 5.58908C11.7918 5.75729 11.7918 6.03 11.6236 6.19822C11.5395 6.28234 11.4293 6.3244 11.3191 6.3244C11.2088 6.3244 11.0986 6.28234 11.0145 6.19822C10.645 5.82872 10.0438 5.82875 9.67441 6.19822C9.50622 6.3664 9.23348 6.3664 9.06524 6.19822Z" fill="#35526C"/>
<path d="M9.06524 5.58908C8.89703 5.75726 8.89703 6.03 9.06524 6.19822C9.23348 6.3664 9.50622 6.3664 9.67441 6.19822C10.0438 5.82875 10.645 5.82872 11.0145 6.19822C11.0986 6.28234 11.2088 6.3244 11.3191 6.3244C11.4293 6.3244 11.5395 6.28234 11.6236 6.19822C11.7918 6.03 11.7918 5.75729 11.6236 5.58908C10.9183 4.88375 9.77057 4.88369 9.06524 5.58908Z" fill="#35526C"/>
<path fill-rule="evenodd" clip-rule="evenodd" d="M3.25019 8.24659C3.25019 8.00873 3.44302 7.81587 3.68091 7.81587H11.3191C11.557 7.81587 11.7498 8.0087 11.7498 8.24659C11.7498 10.5899 9.84334 12.4964 7.5 12.4964C5.15667 12.4964 3.25019 10.5899 3.25019 8.24659ZM4.18318 8.94113C4.16504 8.85436 4.15022 8.76637 4.13888 8.67732H10.8612C10.8498 8.76637 10.835 8.85436 10.8168 8.94113C10.4956 10.4775 9.13041 11.635 7.5 11.635C5.86959 11.635 4.50444 10.4775 4.18318 8.94113Z" fill="#35526C"/>
<path fill-rule="evenodd" clip-rule="evenodd" d="M3.68091 7.55205C3.2973 7.55205 2.98637 7.86304 2.98637 8.24659C2.98637 10.7356 5.01096 12.7602 7.5 12.7602C9.98904 12.7602 12.0136 10.7356 12.0136 8.24659C12.0136 7.863 11.7027 7.55205 11.3191 7.55205H3.68091ZM3.68091 7.81587C3.44302 7.81587 3.25019 8.00873 3.25019 8.24659C3.25019 10.5899 5.15667 12.4964 7.5 12.4964C9.84334 12.4964 11.7498 10.5899 11.7498 8.24659C11.7498 8.0087 11.557 7.81587 11.3191 7.81587H3.68091Z" fill="#35526C"/>
<path fill-rule="evenodd" clip-rule="evenodd" d="M4.13888 8.67732C4.15022 8.76637 4.16504 8.85436 4.18318 8.94113C4.50444 10.4775 5.86959 11.635 7.5 11.635C9.13041 11.635 10.4956 10.4775 10.8168 8.94113C10.835 8.85436 10.8498 8.76637 10.8612 8.67732H4.13888ZM4.45322 8.94113C4.7698 10.3308 6.01615 11.3711 7.5 11.3711C8.98385 11.3711 10.2302 10.3308 10.5468 8.94113H4.45322Z" fill="#35526C"/>
<path fill-rule="evenodd" clip-rule="evenodd" d="M7.5 0.263819C9.43285 0.263819 11.25 1.01652 12.6167 2.38326C13.9835 3.74996 14.7362 5.56715 14.7362 7.5C14.7362 9.43285 13.9835 11.25 12.6167 12.6167C11.25 13.9835 9.43285 14.7362 7.5 14.7362C5.56715 14.7362 3.74996 13.9835 2.38326 12.6167C1.01649 11.25 0.263819 9.43285 0.263819 7.5C0.263819 5.56715 1.01649 3.74996 2.38326 2.38326C3.74996 1.01652 5.56715 0.263819 7.5 0.263819ZM7.5 13.8747C3.98497 13.8747 1.12526 11.015 1.12526 7.5C1.12526 3.98497 3.98497 1.12526 7.5 1.12526C11.015 1.12526 13.8747 3.98497 13.8747 7.5C13.8747 11.015 11.015 13.8747 7.5 13.8747Z" fill="#35526C"/>
<path d="M5.9347 5.58908C6.10292 5.75729 6.10292 6.03 5.9347 6.19822C5.85064 6.28234 5.74037 6.3244 5.63016 6.3244C5.51995 6.3244 5.40974 6.28234 5.32562 6.19822C5.22447 6.09707 5.10595 6.02361 4.97957 5.97785L4.55356 6.19252C4.84968 6.14152 5.06728 6.29943 5.13907 6.38477L6.12125 6.38477L6.12131 6.3847L6.12125 5.40253L5.8712 5.52854C5.89274 5.5481 5.91391 5.56828 5.9347 5.58908Z" fill="#35526C"/>
<path fill-rule="evenodd" clip-rule="evenodd" d="M2.19671 2.19671C0.780468 3.61289 0 5.49718 0 7.5C0 9.50282 0.780469 11.3871 2.19671 12.8033C3.61289 14.2195 5.49718 15 7.5 15C9.50282 15 11.3871 14.2195 12.8033 12.8033C14.2195 11.3871 15 9.50282 15 7.5C15 5.49718 14.2195 3.61289 12.8033 2.19671C11.3871 0.780499 9.50282 0 7.5 0C5.49718 0 3.61289 0.780503 2.19671 2.19671ZM12.6167 2.38326C11.25 1.01652 9.43285 0.263819 7.5 0.263819C5.56715 0.263819 3.74996 1.01652 2.38326 2.38326C1.01649 3.74996 0.263819 5.56715 0.263819 7.5C0.263819 9.43285 1.01649 11.25 2.38326 12.6167C3.74996 13.9835 5.56715 14.7362 7.5 14.7362C9.43285 14.7362 11.25 13.9835 12.6167 12.6167C13.9835 11.25 14.7362 9.43285 14.7362 7.5C14.7362 5.56715 13.9835 3.74996 12.6167 2.38326Z" fill="#35526C"/>
<path fill-rule="evenodd" clip-rule="evenodd" d="M1.12526 7.5C1.12526 11.015 3.98497 13.8747 7.5 13.8747C11.015 13.8747 13.8747 11.015 13.8747 7.5C13.8747 3.98497 11.015 1.12526 7.5 1.12526C3.98497 1.12526 1.12526 3.98497 1.12526 7.5ZM1.38908 7.5C1.38908 10.8693 4.13067 13.6109 7.5 13.6109C10.8693 13.6109 13.6109 10.8693 13.6109 7.5C13.6109 4.13067 10.8693 1.38908 7.5 1.38908C4.13067 1.38908 1.38908 4.13067 1.38908 7.5Z" fill="#35526C"/>
</svg>
