<svg width="12" height="12" viewBox="0 0 12 12" fill="none" xmlns="http://www.w3.org/2000/svg">
<path d="M1.625 1.5C1.55596 1.5 1.5 1.55596 1.5 1.625V10.375C1.5 10.444 1.55596 10.5 1.625 10.5H10.5C10.569 10.5 10.625 10.444 10.625 10.375V6.0625C10.625 5.6828 10.9328 5.375 11.3125 5.375C11.6922 5.375 12 5.6828 12 6.0625V11.1875C12 11.5672 11.6922 11.875 11.3125 11.875H0.8125C0.432804 11.875 0.125 11.5672 0.125 11.1875V0.8125C0.125 0.432804 0.432804 0.125 0.8125 0.125H6.0625C6.4422 0.125 6.75 0.432804 6.75 0.8125C6.75 1.1922 6.4422 1.5 6.0625 1.5H1.625Z" fill="#3F4B51"/>
<path d="M7.93566 5.16161C7.89991 5.19736 7.88922 5.25113 7.90856 5.29784C7.92791 5.34454 7.97349 5.375 8.02405 5.375H9C9.3797 5.375 9.6875 5.6828 9.6875 6.0625C9.6875 6.4422 9.3797 6.75 9 6.75H6.0625C5.6828 6.75 5.375 6.4422 5.375 6.0625V3.1875C5.375 2.8078 5.6828 2.5 6.0625 2.5C6.4422 2.5 6.75 2.8078 6.75 3.1875V4.10095C6.75 4.15151 6.78046 4.19709 6.82716 4.21644C6.87387 4.23578 6.92764 4.22509 6.96339 4.18934L10.8264 0.326364C11.0948 0.0578786 11.5302 0.0578786 11.7986 0.326364C12.0671 0.59485 12.0671 1.03015 11.7986 1.29864L7.93566 5.16161Z" fill="#3F4B51"/>
</svg>
