<svg width="12" height="12" viewBox="0 0 12 12" fill="none" xmlns="http://www.w3.org/2000/svg">
<path d="M10.1417 1.85565C9.03367 0.747685 7.5637 0.137931 5.99705 0.137931C4.43041 0.137931 2.96044 0.747685 1.85238 1.85565C-0.289359 3.99723 -0.438091 7.42524 1.48303 9.73784C1.29464 10.1171 0.992216 10.5583 0.543541 10.7789C0.327879 10.8855 0.206415 11.116 0.243598 11.3539C0.280781 11.5919 0.464217 11.7778 0.702188 11.815C0.813738 11.8323 0.972385 11.8497 1.16574 11.8497C1.68382 11.8497 2.44731 11.7282 3.22816 11.1656C4.09824 11.634 5.05013 11.8621 5.99458 11.8621C7.51164 11.8621 9.01384 11.2746 10.1442 10.1443C11.2523 9.03638 11.8621 7.56652 11.8621 6C11.8621 4.43348 11.2498 2.96362 10.1417 1.85565ZM9.66826 9.67092C7.99502 11.344 5.4046 11.6762 3.36697 10.479C3.23311 10.3996 3.06703 10.4244 2.96044 10.531C2.95052 10.536 2.94061 10.5434 2.93317 10.5508C2.2614 11.0714 1.60202 11.1804 1.16574 11.1804H1.16326C1.66647 10.8136 1.98376 10.2683 2.16968 9.84443C2.19943 9.77254 2.20438 9.69818 2.18703 9.62878C2.17959 9.56186 2.15233 9.49493 2.10523 9.4404C0.290696 7.39054 0.384893 4.26741 2.32337 2.32908C4.34861 0.304003 7.64302 0.304003 9.66578 2.32908C11.6935 4.35416 11.6935 7.64584 9.66826 9.67092Z" fill="#53FFCB"/>
<path d="M10.1417 1.85565C9.03367 0.747685 7.5637 0.137931 5.99705 0.137931C4.43041 0.137931 2.96044 0.747685 1.85238 1.85565C-0.289359 3.99723 -0.438091 7.42524 1.48303 9.73784C1.29464 10.1171 0.992216 10.5583 0.543541 10.7789C0.327879 10.8855 0.206415 11.116 0.243598 11.3539C0.280781 11.5919 0.464217 11.7778 0.702188 11.815C0.813738 11.8323 0.972385 11.8497 1.16574 11.8497C1.68382 11.8497 2.44731 11.7282 3.22816 11.1656C4.09824 11.634 5.05013 11.8621 5.99458 11.8621C7.51164 11.8621 9.01384 11.2746 10.1442 10.1443C11.2523 9.03638 11.8621 7.56652 11.8621 6C11.8621 4.43348 11.2498 2.96362 10.1417 1.85565ZM9.66826 9.67092C7.99502 11.344 5.4046 11.6762 3.36697 10.479C3.23311 10.3996 3.06703 10.4244 2.96044 10.531C2.95052 10.536 2.94061 10.5434 2.93317 10.5508C2.2614 11.0714 1.60202 11.1804 1.16574 11.1804H1.16326C1.66647 10.8136 1.98376 10.2683 2.16968 9.84443C2.19943 9.77254 2.20438 9.69818 2.18703 9.62878C2.17959 9.56186 2.15233 9.49493 2.10523 9.4404C0.290696 7.39054 0.384893 4.26741 2.32337 2.32908C4.34861 0.304003 7.64302 0.304003 9.66578 2.32908C11.6935 4.35416 11.6935 7.64584 9.66826 9.67092Z" fill="#AEB4B7"/>
<path fill-rule="evenodd" clip-rule="evenodd" d="M0.543541 10.7789C0.992216 10.5583 1.29464 10.1171 1.48303 9.73784C-0.438091 7.42524 -0.289359 3.99723 1.85238 1.85565C2.96044 0.747685 4.43041 0.137931 5.99705 0.137931C7.5637 0.137931 9.03367 0.747685 10.1417 1.85565C11.2498 2.96362 11.8621 4.43348 11.8621 6C11.8621 7.56652 11.2523 9.03638 10.1442 10.1443C9.01384 11.2746 7.51164 11.8621 5.99458 11.8621C5.05013 11.8621 4.09824 11.634 3.22816 11.1656C2.44731 11.7282 1.68382 11.8497 1.16574 11.8497C0.972385 11.8497 0.813738 11.8323 0.702188 11.815C0.464217 11.7778 0.280781 11.5919 0.243598 11.3539C0.206415 11.116 0.327879 10.8855 0.543541 10.7789ZM3.23844 11.3271C2.45355 11.868 1.69009 11.9876 1.16574 11.9876C0.964169 11.9876 0.798353 11.9695 0.680986 11.9513C0.382899 11.9047 0.153615 11.6716 0.10731 11.3752C0.0606964 11.0769 0.213454 10.7882 0.482421 10.6552C0.861552 10.4688 1.13491 10.1029 1.31908 9.75526C-0.586459 7.38921 -0.415623 3.92842 1.75484 1.75812C2.88873 0.624329 4.39376 0 5.99705 0C7.60034 0 9.10538 0.624329 10.2393 1.75812C11.373 2.89181 12 4.39668 12 6C12 7.60316 11.3756 9.10809 10.2417 10.2419C9.08475 11.3988 7.54714 12 5.99457 12C5.05522 12 4.10852 11.7796 3.23844 11.3271ZM2.16968 9.84443C2.00682 10.2157 1.74313 10.6802 1.34197 11.0363C1.28594 11.086 1.22723 11.1337 1.16574 11.1786C1.16491 11.1792 1.16409 11.1798 1.16326 11.1804H1.16574C1.23752 11.1804 1.31534 11.1775 1.39826 11.1702C1.81933 11.1334 2.37192 10.9857 2.93317 10.5508C2.94061 10.5434 2.95052 10.536 2.96044 10.531C3.06703 10.4244 3.23311 10.3996 3.36697 10.479C5.4046 11.6762 7.99502 11.344 9.66826 9.67092C11.6935 7.64584 11.6935 4.35416 9.66578 2.32908C7.64302 0.304003 4.34861 0.304003 2.32337 2.32908C0.384893 4.26741 0.290696 7.39054 2.10523 9.4404C2.15233 9.49493 2.17959 9.56186 2.18703 9.62878C2.20438 9.69818 2.19943 9.77254 2.16968 9.84443ZM2.32302 9.60436C2.31126 9.5143 2.27373 9.42447 2.20963 9.35025L2.20852 9.34898C0.442334 7.35373 0.533985 4.31339 2.42091 2.42661C4.39231 0.455367 7.59934 0.455453 9.56818 2.42655C11.542 4.39776 11.5421 7.60218 9.57072 9.57339C7.94189 11.2021 5.42041 11.5253 3.43708 10.3602C3.25312 10.2513 3.02673 10.2817 2.87665 10.4203C2.86442 10.4282 2.85321 10.4369 2.84335 10.4459C2.38698 10.7981 1.93843 10.9512 1.56938 11.0102C1.9156 10.6577 2.14799 10.2373 2.296 9.89983L2.29714 9.89716C2.33671 9.80154 2.34503 9.70034 2.32302 9.60436Z" fill="#53FFCB"/>
<path fill-rule="evenodd" clip-rule="evenodd" d="M0.543541 10.7789C0.992216 10.5583 1.29464 10.1171 1.48303 9.73784C-0.438091 7.42524 -0.289359 3.99723 1.85238 1.85565C2.96044 0.747685 4.43041 0.137931 5.99705 0.137931C7.5637 0.137931 9.03367 0.747685 10.1417 1.85565C11.2498 2.96362 11.8621 4.43348 11.8621 6C11.8621 7.56652 11.2523 9.03638 10.1442 10.1443C9.01384 11.2746 7.51164 11.8621 5.99458 11.8621C5.05013 11.8621 4.09824 11.634 3.22816 11.1656C2.44731 11.7282 1.68382 11.8497 1.16574 11.8497C0.972385 11.8497 0.813738 11.8323 0.702188 11.815C0.464217 11.7778 0.280781 11.5919 0.243598 11.3539C0.206415 11.116 0.327879 10.8855 0.543541 10.7789ZM3.23844 11.3271C2.45355 11.868 1.69009 11.9876 1.16574 11.9876C0.964169 11.9876 0.798353 11.9695 0.680986 11.9513C0.382899 11.9047 0.153615 11.6716 0.10731 11.3752C0.0606964 11.0769 0.213454 10.7882 0.482421 10.6552C0.861552 10.4688 1.13491 10.1029 1.31908 9.75526C-0.586459 7.38921 -0.415623 3.92842 1.75484 1.75812C2.88873 0.624329 4.39376 0 5.99705 0C7.60034 0 9.10538 0.624329 10.2393 1.75812C11.373 2.89181 12 4.39668 12 6C12 7.60316 11.3756 9.10809 10.2417 10.2419C9.08475 11.3988 7.54714 12 5.99457 12C5.05522 12 4.10852 11.7796 3.23844 11.3271ZM2.16968 9.84443C2.00682 10.2157 1.74313 10.6802 1.34197 11.0363C1.28594 11.086 1.22723 11.1337 1.16574 11.1786C1.16491 11.1792 1.16409 11.1798 1.16326 11.1804H1.16574C1.23752 11.1804 1.31534 11.1775 1.39826 11.1702C1.81933 11.1334 2.37192 10.9857 2.93317 10.5508C2.94061 10.5434 2.95052 10.536 2.96044 10.531C3.06703 10.4244 3.23311 10.3996 3.36697 10.479C5.4046 11.6762 7.99502 11.344 9.66826 9.67092C11.6935 7.64584 11.6935 4.35416 9.66578 2.32908C7.64302 0.304003 4.34861 0.304003 2.32337 2.32908C0.384893 4.26741 0.290696 7.39054 2.10523 9.4404C2.15233 9.49493 2.17959 9.56186 2.18703 9.62878C2.20438 9.69818 2.19943 9.77254 2.16968 9.84443ZM2.32302 9.60436C2.31126 9.5143 2.27373 9.42447 2.20963 9.35025L2.20852 9.34898C0.442334 7.35373 0.533985 4.31339 2.42091 2.42661C4.39231 0.455367 7.59934 0.455453 9.56818 2.42655C11.542 4.39776 11.5421 7.60218 9.57072 9.57339C7.94189 11.2021 5.42041 11.5253 3.43708 10.3602C3.25312 10.2513 3.02673 10.2817 2.87665 10.4203C2.86442 10.4282 2.85321 10.4369 2.84335 10.4459C2.38698 10.7981 1.93843 10.9512 1.56938 11.0102C1.9156 10.6577 2.14799 10.2373 2.296 9.89983L2.29714 9.89716C2.33671 9.80154 2.34503 9.70034 2.32302 9.60436Z" fill="#AEB4B7"/>
<path d="M5.99705 6.41146C6.22431 6.41146 6.40854 6.22724 6.40854 6C6.40854 5.77276 6.22431 5.58854 5.99705 5.58854C5.76979 5.58854 5.58556 5.77276 5.58556 6C5.58556 6.22724 5.76979 6.41146 5.99705 6.41146Z" fill="#53FFCB"/>
<path d="M5.99705 6.41146C6.22431 6.41146 6.40854 6.22724 6.40854 6C6.40854 5.77276 6.22431 5.58854 5.99705 5.58854C5.76979 5.58854 5.58556 5.77276 5.58556 6C5.58556 6.22724 5.76979 6.41146 5.99705 6.41146Z" fill="#AEB4B7"/>
<path fill-rule="evenodd" clip-rule="evenodd" d="M6.54649 6C6.54649 6.30342 6.3005 6.54939 5.99705 6.54939C5.69361 6.54939 5.44762 6.30342 5.44762 6C5.44762 5.69658 5.69361 5.45061 5.99705 5.45061C6.3005 5.45061 6.54649 5.69658 6.54649 6ZM6.40854 6C6.40854 6.22724 6.22431 6.41146 5.99705 6.41146C5.76979 6.41146 5.58556 6.22724 5.58556 6C5.58556 5.77276 5.76979 5.58854 5.99705 5.58854C6.22431 5.58854 6.40854 5.77276 6.40854 6Z" fill="#53FFCB"/>
<path fill-rule="evenodd" clip-rule="evenodd" d="M6.54649 6C6.54649 6.30342 6.3005 6.54939 5.99705 6.54939C5.69361 6.54939 5.44762 6.30342 5.44762 6C5.44762 5.69658 5.69361 5.45061 5.99705 5.45061C6.3005 5.45061 6.54649 5.69658 6.54649 6ZM6.40854 6C6.40854 6.22724 6.22431 6.41146 5.99705 6.41146C5.76979 6.41146 5.58556 6.22724 5.58556 6C5.58556 5.77276 5.76979 5.58854 5.99705 5.58854C6.22431 5.58854 6.40854 5.77276 6.40854 6Z" fill="#AEB4B7"/>
<path d="M8.11896 6.41146C8.34622 6.41146 8.53045 6.22724 8.53045 6C8.53045 5.77276 8.34622 5.58854 8.11896 5.58854C7.8917 5.58854 7.70747 5.77276 7.70747 6C7.70747 6.22724 7.8917 6.41146 8.11896 6.41146Z" fill="#53FFCB"/>
<path d="M8.11896 6.41146C8.34622 6.41146 8.53045 6.22724 8.53045 6C8.53045 5.77276 8.34622 5.58854 8.11896 5.58854C7.8917 5.58854 7.70747 5.77276 7.70747 6C7.70747 6.22724 7.8917 6.41146 8.11896 6.41146Z" fill="#AEB4B7"/>
<path fill-rule="evenodd" clip-rule="evenodd" d="M8.66839 6C8.66839 6.30342 8.4224 6.54939 8.11896 6.54939C7.81552 6.54939 7.56953 6.30342 7.56953 6C7.56953 5.69658 7.81552 5.45061 8.11896 5.45061C8.4224 5.45061 8.66839 5.69658 8.66839 6ZM8.53045 6C8.53045 6.22724 8.34622 6.41146 8.11896 6.41146C7.8917 6.41146 7.70747 6.22724 7.70747 6C7.70747 5.77276 7.8917 5.58854 8.11896 5.58854C8.34622 5.58854 8.53045 5.77276 8.53045 6Z" fill="#53FFCB"/>
<path fill-rule="evenodd" clip-rule="evenodd" d="M8.66839 6C8.66839 6.30342 8.4224 6.54939 8.11896 6.54939C7.81552 6.54939 7.56953 6.30342 7.56953 6C7.56953 5.69658 7.81552 5.45061 8.11896 5.45061C8.4224 5.45061 8.66839 5.69658 8.66839 6ZM8.53045 6C8.53045 6.22724 8.34622 6.41146 8.11896 6.41146C7.8917 6.41146 7.70747 6.22724 7.70747 6C7.70747 5.77276 7.8917 5.58854 8.11896 5.58854C8.34622 5.58854 8.53045 5.77276 8.53045 6Z" fill="#AEB4B7"/>
<path d="M3.87514 6.41146C4.10241 6.41146 4.28664 6.22724 4.28664 6C4.28664 5.77276 4.10241 5.58854 3.87514 5.58854C3.64788 5.58854 3.46365 5.77276 3.46365 6C3.46365 6.22724 3.64788 6.41146 3.87514 6.41146Z" fill="#53FFCB"/>
<path d="M3.87514 6.41146C4.10241 6.41146 4.28664 6.22724 4.28664 6C4.28664 5.77276 4.10241 5.58854 3.87514 5.58854C3.64788 5.58854 3.46365 5.77276 3.46365 6C3.46365 6.22724 3.64788 6.41146 3.87514 6.41146Z" fill="#AEB4B7"/>
<path fill-rule="evenodd" clip-rule="evenodd" d="M4.42458 6C4.42458 6.30342 4.17859 6.54939 3.87514 6.54939C3.5717 6.54939 3.32571 6.30342 3.32571 6C3.32571 5.69658 3.5717 5.45061 3.87514 5.45061C4.17859 5.45061 4.42458 5.69658 4.42458 6ZM4.28664 6C4.28664 6.22724 4.10241 6.41146 3.87514 6.41146C3.64788 6.41146 3.46365 6.22724 3.46365 6C3.46365 5.77276 3.64788 5.58854 3.87514 5.58854C4.10241 5.58854 4.28664 5.77276 4.28664 6Z" fill="#53FFCB"/>
<path fill-rule="evenodd" clip-rule="evenodd" d="M4.42458 6C4.42458 6.30342 4.17859 6.54939 3.87514 6.54939C3.5717 6.54939 3.32571 6.30342 3.32571 6C3.32571 5.69658 3.5717 5.45061 3.87514 5.45061C4.17859 5.45061 4.42458 5.69658 4.42458 6ZM4.28664 6C4.28664 6.22724 4.10241 6.41146 3.87514 6.41146C3.64788 6.41146 3.46365 6.22724 3.46365 6C3.46365 5.77276 3.64788 5.58854 3.87514 5.58854C4.10241 5.58854 4.28664 5.77276 4.28664 6Z" fill="#AEB4B7"/>
</svg>
